<?xml version="1.0" encoding="utf-8"?>
<!-- Generator: Adobe Illustrator 27.5.0, SVG Export Plug-In . SVG Version: 6.00 Build 0)  -->
<svg version="1.1" xmlns="http://www.w3.org/2000/svg" xmlns:xlink="http://www.w3.org/1999/xlink" x="0px" y="0px"
	 viewBox="0 0 500 500" style="enable-background:new 0 0 500 500;" xml:space="preserve">
<g id="Background_Simple">
	<g>
		<path style="fill:#C6FF00;" d="M341.549,444.532c50.688-11.029,93.933-44.412,106.437-96.288
			c7.745-32.131,6.57-74.516-8.224-104.511c-14.624-29.651-42.693-49.274-65.442-72.189c-30.318-30.539-53.953-71.644-90.001-95.376
			c-36-23.701-82.478-25.633-122.786-12.901c-32.293,10.2-54.959,27.175-73.504,55.466c-17.211,26.257-27.98,56.665-31.727,87.804
			c-8.231,68.407,14.063,143.251,66.187,189.707c41.271,36.783,102.026,52.441,155.945,53.56
			C299.579,450.243,320.842,449.038,341.549,444.532z"/>
		<path style="opacity:0.6;fill:#FFFFFF;" d="M341.729,444.752c50.688-11.029,93.933-44.412,106.437-96.288
			c7.745-32.131,6.569-74.516-8.224-104.511c-14.624-29.652-42.693-49.274-65.442-72.189
			c-30.318-30.539-53.953-71.644-90.001-95.376c-36-23.701-82.478-25.633-122.786-12.901c-32.293,10.2-54.96,27.175-73.504,55.466
			c-17.211,26.257-27.98,56.665-31.727,87.804c-8.23,68.407,14.063,143.251,66.187,189.707
			c41.271,36.783,102.026,52.441,155.945,53.56C299.759,450.463,321.022,449.258,341.729,444.752z"/>
	</g>
</g>
<g id="Graphics">
	<g>
		<path style="fill:#263238;" d="M200.038,196.756c-0.337-0.003-0.651-0.176-0.845-0.466l-29.839-45.89l-30.289,34.004
			l-30.913-21.228l-29.91,7.312l-30.384,25.985c-0.436,0.374-1.078,0.306-1.433-0.154c-0.355-0.459-0.29-1.135,0.146-1.51l0,0
			l30.747-26.335l31.221-7.628l30.21,20.745l30.85-34.644l31.284,48.053c0.321,0.487,0.207,1.155-0.255,1.493
			c-0.002,0.001-0.003,0.002-0.005,0.004C200.459,196.649,200.254,196.739,200.038,196.756z"/>
		<path style="fill:#FFFFFF;" d="M49.747,195.633c0.004,1.475-1.127,2.674-2.527,2.678s-2.539-1.187-2.543-2.662
			c-0.004-1.475,1.127-2.674,2.527-2.678c0.003,0,0.005,0,0.008,0C48.609,192.971,49.743,194.162,49.747,195.633z"/>
		<path style="fill:#FFFFFF;" d="M77.777,166.82c1.4,0,2.535,1.195,2.535,2.67c0,1.475-1.135,2.67-2.535,2.67
			s-2.535-1.196-2.535-2.67C75.242,168.015,76.377,166.82,77.777,166.82z"/>
		<path style="fill:#FFFFFF;" d="M108.342,159.35c1.4,0,2.535,1.195,2.535,2.67c0,1.475-1.135,2.67-2.535,2.67
			c-1.4,0-2.535-1.195-2.535-2.67C105.807,160.546,106.942,159.35,108.342,159.35z"/>
		<path style="fill:#FFFFFF;" d="M138.908,180.337c1.4,0,2.535,1.195,2.535,2.67c0,1.475-1.135,2.67-2.535,2.67
			c-1.4,0-2.535-1.195-2.535-2.67C136.372,181.532,137.507,180.337,138.908,180.337z"/>
		<path style="fill:#FFFFFF;" d="M172.008,148.687c0,1.475-1.135,2.67-2.535,2.67c-1.4,0-2.535-1.195-2.535-2.67
			c0-1.475,1.135-2.67,2.535-2.67l0,0C170.873,146.017,172.008,147.212,172.008,148.687z"/>
		<path style="fill:#FFFFFF;" d="M202.574,195.633c0.004,1.475-1.127,2.674-2.527,2.678c-1.4,0.005-2.539-1.187-2.543-2.662
			c-0.004-1.475,1.127-2.674,2.527-2.678c0.003,0,0.005,0,0.008,0C201.435,192.971,202.569,194.162,202.574,195.633z"/>
	</g>
	<g>
		<path style="fill:#263238;" d="M351.862,118.224l3.343-1.513l-0.7-3.998l-3.682-0.294c-0.469-1.228-1.083-2.396-1.83-3.479
			l1.875-3.208l-2.869-2.869l-3.207,1.92c-1.858-1.256-3.959-2.11-6.167-2.507l-0.926-3.682h-4.066l-0.949,3.705
			c-1.253,0.243-2.473,0.63-3.637,1.152l-2.914-2.507l-3.32,2.259l1.378,3.591c-0.875,0.912-1.634,1.929-2.259,3.027l-3.817-0.384
			l-1.378,3.817l3.162,2.259c-0.157,0.887-0.232,1.787-0.226,2.688c-0.023,0.376-0.023,0.753,0,1.13l-3.343,1.875l1.062,3.908h3.772
			c0.539,1.184,1.23,2.293,2.056,3.298l-1.626,3.388l3.117,2.598l3.004-2.146c1.145,0.659,2.366,1.175,3.637,1.536l0.632,3.614
			l4.043,0.339l1.22-3.434c1.325-0.112,2.631-0.393,3.885-0.836l2.552,2.575l3.524-2.01l-0.971-3.501
			c1.024-0.869,1.935-1.863,2.711-2.959l3.569,0.655l1.717-3.682l-2.801-2.259C351.745,120.958,351.89,119.592,351.862,118.224z
			 M345.853,118.224c0,5.602-4.541,10.142-10.142,10.142c-5.601,0-10.142-4.541-10.142-10.142s4.541-10.142,10.142-10.142
			c0.008,0,0.015,0,0.023,0c5.571,0,10.095,4.503,10.12,10.074V118.224z"/>
		<path style="opacity:0.1;fill:#FFFFFF;" d="M353.029,117.696l0.74-0.335c0.845-0.383,1.324-1.289,1.164-2.203l-0.157-0.895
			c-0.16-0.913-0.917-1.602-1.841-1.676l-0.888-0.071c-0.717-0.057-1.36-0.483-1.662-1.136c-0.235-0.507-0.495-1.003-0.78-1.484
			c-0.369-0.622-0.353-1.399,0.012-2.024l0.459-0.786c0.466-0.798,0.336-1.81-0.318-2.464l-0.638-0.638
			c-0.659-0.659-1.682-0.786-2.482-0.307l-0.786,0.471c-0.621,0.372-1.399,0.393-2.026,0.031c-1.275-0.736-2.645-1.294-4.071-1.658
			c-0.711-0.181-1.257-0.749-1.436-1.46l-0.234-0.93c-0.227-0.904-1.04-1.537-1.972-1.537h-0.903c-0.929,0-1.739,0.629-1.97,1.529
			l-0.252,0.984c-0.179,0.7-0.714,1.261-1.413,1.447c-0.498,0.132-0.989,0.288-1.472,0.466c-0.681,0.251-1.444,0.099-1.994-0.375
			l-0.796-0.685c-0.697-0.6-1.71-0.657-2.47-0.14l-0.701,0.477c-0.78,0.531-1.093,1.528-0.755,2.409l0.361,0.94
			c0.258,0.672,0.148,1.436-0.311,1.991c-0.318,0.384-0.616,0.784-0.895,1.197c-0.412,0.611-1.133,0.935-1.866,0.861l-0.987-0.099
			c-0.927-0.093-1.799,0.456-2.116,1.333l-0.316,0.877c-0.309,0.857-0.011,1.815,0.731,2.345l0.916,0.654
			c0.583,0.417,0.91,1.111,0.839,1.824c-0.052,0.522-0.076,1.047-0.073,1.573c0,0.004,0,0.007-0.001,0.011
			c-0.042,0.705-0.411,1.349-1.027,1.695l-0.932,0.523c-0.813,0.456-1.212,1.407-0.968,2.306l0.238,0.877
			c0.241,0.885,1.044,1.5,1.962,1.5h0.972c0.725,0,1.406,0.381,1.756,1.017c0.263,0.477,0.551,0.94,0.864,1.386
			c0.414,0.589,0.458,1.36,0.147,2.008l-0.407,0.848c-0.403,0.84-0.184,1.846,0.531,2.442l0.695,0.579
			c0.71,0.592,1.731,0.63,2.483,0.092l0.711-0.508c0.593-0.424,1.372-0.508,2.028-0.19c0.509,0.247,1.031,0.467,1.564,0.659
			c0.671,0.242,1.148,0.841,1.271,1.543l0.152,0.868c0.159,0.91,0.912,1.598,1.833,1.676l0.919,0.077
			c0.92,0.077,1.777-0.475,2.086-1.345l0.277-0.779c0.244-0.686,0.833-1.201,1.552-1.316c0.567-0.09,1.129-0.211,1.683-0.363
			c0.691-0.189,1.429,0.03,1.934,0.538l0.59,0.595c0.647,0.653,1.653,0.79,2.451,0.335l0.795-0.453
			c0.809-0.461,1.201-1.413,0.952-2.31l-0.216-0.779c-0.194-0.697-0.011-1.454,0.506-1.961c0.419-0.41,0.815-0.842,1.186-1.295
			c0.458-0.559,1.195-0.807,1.906-0.676l0.804,0.147c0.91,0.167,1.819-0.302,2.21-1.141l0.38-0.815
			c0.395-0.847,0.161-1.855-0.566-2.442l-0.609-0.491c-0.555-0.448-0.851-1.156-0.735-1.859c0.098-0.596,0.162-1.197,0.194-1.801
			C351.882,118.655,352.351,118.003,353.029,117.696z M345.853,118.224c0,5.602-4.541,10.142-10.142,10.142
			c-5.601,0-10.142-4.541-10.142-10.142s4.541-10.142,10.142-10.142c0.008,0,0.015,0,0.023,0c5.571,0,10.095,4.503,10.12,10.074
			V118.224z"/>
	</g>
	<g>
		<path style="fill:#263238;" d="M397.906,168.642l5.201-2.355l-1.089-6.22l-5.729-0.457c-0.72-1.922-1.689-3.742-2.882-5.412
			l2.952-4.99l-4.463-4.428l-5.025,2.987c-2.872-1.974-6.13-3.316-9.559-3.936l-1.441-5.729h-6.326l-1.476,5.764
			c-1.95,0.391-3.848,1.004-5.658,1.827l-4.534-3.901l-5.166,3.514l2.144,5.588c-1.361,1.419-2.542,3.001-3.514,4.709l-5.939-0.632
			l-2.144,5.939l4.92,3.339c-0.242,1.393-0.36,2.804-0.352,4.217c-0.035,0.585-0.035,1.172,0,1.757l-5.201,2.917l1.652,6.08h5.869
			c0.855,1.833,1.929,3.556,3.198,5.131l-2.53,5.236l4.85,4.077l4.674-3.514c1.779,1.03,3.68,1.833,5.658,2.39l0.949,5.658
			l6.291,0.562l1.898-5.342c2.061-0.204,4.09-0.652,6.045-1.336l3.971,4.042l5.482-3.163l-1.511-5.447
			c1.593-1.339,3.01-2.874,4.217-4.569l5.553,1.019l2.671-5.728l-4.358-3.514C397.682,172.731,397.918,170.689,397.906,168.642z
			 M388.558,168.642c0,8.715-7.065,15.779-15.779,15.779c-8.715,0-15.779-7.065-15.779-15.779c0-8.715,7.065-15.78,15.78-15.78l0,0
			c8.674,0,15.721,7.001,15.779,15.674V168.642z"/>
		<path style="opacity:0.1;fill:#FFFFFF;" d="M397.906,168.642l5.201-2.355l-1.089-6.22l-5.729-0.457
			c-0.72-1.922-1.689-3.742-2.882-5.412l2.952-4.99l-4.463-4.428l-5.025,2.987c-2.872-1.974-6.13-3.316-9.559-3.936l-1.441-5.729
			h-6.326l-1.476,5.764c-1.95,0.391-3.848,1.004-5.658,1.827l-4.534-3.901l-5.166,3.514l2.144,5.588
			c-1.361,1.419-2.542,3.001-3.514,4.709l-5.939-0.632l-2.144,5.939l4.92,3.339c-0.242,1.393-0.36,2.804-0.352,4.217
			c-0.035,0.585-0.035,1.172,0,1.757l-5.201,2.917l1.652,6.08h5.869c0.855,1.833,1.929,3.556,3.198,5.131l-2.53,5.236l4.85,4.077
			l4.674-3.514c1.779,1.03,3.68,1.833,5.658,2.39l0.949,5.658l6.291,0.562l1.898-5.342c2.061-0.204,4.09-0.652,6.045-1.336
			l3.971,4.042l5.482-3.163l-1.511-5.447c1.593-1.339,3.01-2.874,4.217-4.569l5.553,1.019l2.671-5.728l-4.358-3.514
			C397.682,172.731,397.918,170.689,397.906,168.642z M388.558,168.642c0,8.715-7.065,15.779-15.779,15.779
			c-8.715,0-15.779-7.065-15.779-15.779c0-8.715,7.065-15.78,15.78-15.78l0,0c8.674,0,15.721,7.001,15.779,15.674V168.642z"/>
	</g>
	<g>
		<g>
			<g>
				<path style="fill:#263238;" d="M119.946,261.405l3.966-1.796l-0.831-4.744l-4.369-0.348c-0.556-1.457-1.285-2.843-2.171-4.127
					l2.225-3.806l-3.404-3.404l-3.806,2.278c-2.205-1.49-4.697-2.503-7.317-2.975l-1.099-4.368h-4.824l-1.126,4.395
					c-1.486,0.289-2.934,0.747-4.315,1.367l-3.457-2.975l-3.94,2.68l1.635,4.261c-1.038,1.082-1.938,2.288-2.68,3.591l-4.529-0.456
					l-1.635,4.529l3.752,2.68c-0.186,1.053-0.275,2.12-0.268,3.189c-0.027,0.446-0.027,0.894,0,1.34l-3.966,2.224l1.26,4.636h4.476
					c0.639,1.405,1.459,2.72,2.439,3.913l-1.93,4.02l3.699,3.082l3.564-2.546c1.358,0.782,2.808,1.394,4.315,1.822l0.75,4.288
					l4.797,0.402l1.447-4.074c1.572-0.133,3.122-0.467,4.61-0.992l3.028,3.055l4.181-2.385l-1.152-4.154
					c1.215-1.031,2.295-2.21,3.216-3.511l4.234,0.777l2.037-4.369l-3.323-2.68C119.808,264.649,119.979,263.028,119.946,261.405z
					 M112.817,261.405c0,6.646-5.388,12.034-12.034,12.034c-6.646,0-12.033-5.388-12.033-12.034s5.388-12.034,12.034-12.034
					c0.009,0,0.018,0,0.027,0c6.61,0,11.977,5.343,12.007,11.953V261.405z"/>
				<path style="opacity:0.1;fill:#FFFFFF;" d="M121.33,260.779l0.878-0.397c1.003-0.454,1.571-1.529,1.381-2.614l-0.186-1.061
					c-0.19-1.083-1.088-1.901-2.184-1.988l-1.054-0.084c-0.85-0.068-1.614-0.574-1.972-1.348c-0.278-0.602-0.587-1.19-0.925-1.76
					c-0.437-0.738-0.419-1.66,0.014-2.401l0.545-0.932c0.553-0.947,0.398-2.148-0.377-2.923l-0.757-0.757
					c-0.782-0.782-1.996-0.932-2.945-0.364l-0.933,0.559c-0.737,0.441-1.66,0.466-2.404,0.037c-1.513-0.873-3.138-1.535-4.83-1.967
					c-0.843-0.215-1.491-0.889-1.704-1.733l-0.277-1.103c-0.27-1.072-1.234-1.824-2.34-1.824h-1.071
					c-1.102,0-2.064,0.747-2.337,1.814l-0.299,1.167c-0.213,0.831-0.848,1.496-1.676,1.716c-0.59,0.157-1.173,0.342-1.746,0.553
					c-0.808,0.298-1.713,0.117-2.366-0.444l-0.944-0.813c-0.827-0.712-2.028-0.78-2.93-0.166l-0.831,0.565
					c-0.926,0.63-1.296,1.813-0.895,2.859l0.428,1.115c0.306,0.798,0.176,1.704-0.369,2.363c-0.377,0.456-0.731,0.93-1.062,1.42
					c-0.488,0.724-1.344,1.109-2.213,1.021l-1.171-0.118c-1.1-0.111-2.135,0.541-2.511,1.581l-0.375,1.04
					c-0.367,1.017-0.013,2.154,0.867,2.782l1.087,0.776c0.692,0.495,1.08,1.318,0.996,2.165c-0.062,0.62-0.09,1.243-0.086,1.866
					c0,0.004-0.001,0.009-0.001,0.013c-0.05,0.837-0.488,1.601-1.219,2.011l-1.106,0.62c-0.965,0.541-1.438,1.669-1.148,2.736
					l0.283,1.041c0.285,1.051,1.239,1.78,2.328,1.78h1.154c0.861,0,1.668,0.452,2.083,1.206c0.312,0.566,0.654,1.115,1.025,1.644
					c0.491,0.698,0.544,1.614,0.174,2.383l-0.483,1.006c-0.478,0.996-0.218,2.19,0.631,2.897l0.824,0.687
					c0.843,0.702,2.054,0.748,2.947,0.11l0.844-0.603c0.704-0.503,1.628-0.602,2.407-0.225c0.604,0.293,1.224,0.554,1.855,0.782
					c0.796,0.287,1.362,0.997,1.508,1.831l0.18,1.03c0.189,1.08,1.082,1.897,2.175,1.988l1.091,0.091
					c1.092,0.091,2.108-0.564,2.475-1.596l0.328-0.925c0.289-0.814,0.989-1.426,1.842-1.561c0.673-0.107,1.339-0.251,1.996-0.431
					c0.82-0.225,1.696,0.035,2.294,0.639l0.7,0.706c0.768,0.775,1.961,0.938,2.909,0.397l0.943-0.538
					c0.959-0.547,1.424-1.676,1.129-2.74l-0.257-0.925c-0.23-0.828-0.013-1.726,0.601-2.326c0.497-0.486,0.966-0.999,1.407-1.536
					c0.544-0.663,1.418-0.957,2.261-0.803l0.954,0.175c1.08,0.198,2.158-0.358,2.622-1.353l0.451-0.967
					c0.469-1.005,0.191-2.201-0.672-2.897l-0.723-0.583c-0.659-0.531-1.009-1.371-0.873-2.206c0.116-0.707,0.193-1.421,0.23-2.137
					C119.97,261.917,120.526,261.143,121.33,260.779z M112.817,261.405c0,6.646-5.388,12.034-12.034,12.034
					c-6.646,0-12.033-5.388-12.033-12.034s5.388-12.034,12.034-12.034c0.009,0,0.018,0,0.027,0c6.61,0,11.977,5.343,12.007,11.953
					V261.405z"/>
			</g>
		</g>
	</g>
</g>
<g id="Clock">
	<g>
		
			<ellipse transform="matrix(0.9264 -0.3766 0.3766 0.9264 -79.5073 169.1968)" style="fill:#263238;" cx="392.973" cy="287.941" rx="26.346" ry="26.346"/>
		
			<ellipse transform="matrix(0.1612 -0.9869 0.9869 0.1612 45.4436 629.3519)" style="fill:#FFFFFF;stroke:#263238;stroke-miterlimit:10;" cx="392.973" cy="287.941" rx="22.853" ry="22.853"/>
		<polyline style="fill:none;stroke:#263238;stroke-width:2;stroke-miterlimit:10;" points="378.151,292.147 392.973,287.941 
			392.973,267.206 		"/>
	</g>
</g>
<g id="Window">
	<g id="Window--inject-1">
		
			<line style="fill:none;stroke:#263238;stroke-linecap:round;stroke-linejoin:round;" x1="358.119" y1="310.521" x2="358.119" y2="212.155"/>
		
			<line style="fill:none;stroke:#263238;stroke-linecap:round;stroke-linejoin:round;" x1="153.768" y1="318.917" x2="153.768" y2="120.64"/>
		
			<line style="fill:none;stroke:#263238;stroke-linecap:round;stroke-linejoin:round;" x1="87.366" y1="235.54" x2="403.977" y2="235.54"/>
		
			<line style="fill:none;stroke:#263238;stroke-width:0.5;stroke-linecap:round;stroke-linejoin:round;" x1="249.613" y1="113.064" x2="167.605" y2="163.605"/>
		
			<line style="fill:none;stroke:#263238;stroke-width:0.5;stroke-linecap:round;stroke-linejoin:round;" x1="260.439" y1="116.482" x2="194.73" y2="156.963"/>
		
			<line style="fill:none;stroke:#263238;stroke-width:0.5;stroke-linecap:round;stroke-linejoin:round;" x1="289.133" y1="98.796" x2="269.282" y2="111.021"/>
	</g>
</g>
<g id="Table">
	<line style="fill:none;stroke:#263238;stroke-miterlimit:10;" x1="110.544" y1="374.29" x2="389.742" y2="374.29"/>
</g>
<g id="Sheets">
	<g>
		<polygon style="fill:#FFFFFF;stroke:#263238;stroke-linecap:round;stroke-linejoin:round;" points="245.533,390.807 
			260.535,425.309 310.089,418.988 281.335,390.807 		"/>
		<polygon style="fill:#FFFFFF;stroke:#263238;stroke-linecap:round;stroke-linejoin:round;" points="298.901,387.82 332.734,412.8 
			279.425,419.99 257.074,388.415 		"/>
	</g>
</g>
<g id="Computer">
	<g>
		<g>
			<g>
				<g>
					<polygon style="fill:#FFFFFF;stroke:#263238;stroke-linecap:round;stroke-linejoin:round;" points="106.644,403.296 
						129.319,382.367 219.569,382.367 183.969,405.825 					"/>
					<polygon style="fill:#FFFFFF;stroke:#263238;stroke-linecap:round;stroke-linejoin:round;" points="183.05,408.92 
						101.47,404.4 90.94,373.59 80.983,344.455 165.33,347.88 179.1,395.33 					"/>
					<path style="fill:#263238;stroke:#263238;stroke-miterlimit:10;" d="M183.05,408.92l-81.58-4.52l-10.53-30.81
						c13.42,1.54,26.94-0.55,50.36,3.25c20.51,3.31,31.72,11.22,37.8,18.49L183.05,408.92z"/>
				</g>
				<polygon style="fill:#FFFFFF;stroke:#263238;stroke-miterlimit:10;" points="219.569,383.024 219.569,385.899 183.784,408.724 
					163.137,348.861 166.256,347.462 185.298,404.405 				"/>
			</g>
			<g>
				<polygon style="fill:#FFFFFF;stroke:#263238;stroke-miterlimit:10;" points="166.73,347.25 163.14,348.86 81.66,343.99 
					85.85,341.95 166.64,346.96 				"/>
				<path style="fill:#263238;" d="M166.73,347.25l-0.09-0.29l-0.14-0.52l-80.62-4.98l-0.13-0.01l-5.36,2.61l0.11,0.37l82.61,4.93
					l0.12,0.01l3.63-1.63L166.73,347.25z M163.04,348.35l-79.45-4.74l2.36-1.15l79.29,4.91L163.04,348.35z"/>
			</g>
		</g>
		<line style="fill:#FFFFFF;stroke:#263238;stroke-miterlimit:10;" x1="185.298" y1="404.405" x2="183.784" y2="408.724"/>
	</g>
</g>
<g id="Plant">
	<g>
		<path style="fill:#FFFFFF;stroke:#263238;stroke-linecap:round;stroke-linejoin:round;" d="M373.234,365.252h-46.603
			c0,0,0,12.512,6.581,28.88c0,3.135,7.527,5.649,16.819,5.649c9.292,0,16.805-2.528,16.805-5.649c0.02-0.155,0.02-0.311,0-0.466
			C373.164,377.524,373.234,365.252,373.234,365.252z"/>
		
			<ellipse style="fill:#FFFFFF;stroke:#263238;stroke-linecap:round;stroke-linejoin:round;" cx="350.088" cy="365.252" rx="23.4" ry="6.793"/>
		<path style="fill:#FFFFFF;stroke:#263238;stroke-linecap:round;stroke-linejoin:round;" d="M350.088,359.575
			c11.598,0,20.999,2.542,20.999,5.677c0,3.135-9.402,5.677-20.999,5.677c-11.598,0-21-2.542-21-5.677
			C329.089,362.116,338.49,359.575,350.088,359.575z"/>
		<path style="fill:#263238;stroke:#263238;stroke-linecap:round;stroke-linejoin:round;" d="M331.066,367.652
			c3.361,1.935,10.606,3.262,19.023,3.262c8.417,0,15.661-1.328,19.008-3.262c-3.347-1.921-10.606-3.262-19.008-3.262
			C341.685,364.39,334.427,365.732,331.066,367.652z"/>
		<path style="fill:#C6FF00;stroke:#263238;stroke-linecap:round;stroke-linejoin:round;" d="M340.301,368.189
			c0,0-6.087-15.195-4.307-19.249c1.779-4.053,7.598-3.545,9.631,0.508c2.034,4.053,3.036,19.248,3.036,19.248
			S342.575,370.731,340.301,368.189z"/>
		<path style="fill:#C6FF00;stroke:#263238;stroke-linecap:round;stroke-linejoin:round;" d="M345.625,369.714
			c0,0-4.816-26.832-3.559-31.916c1.257-5.084,7.612-6.849,12.159-3.05c4.547,3.799,2.824,23.061,2.824,25.843
			c0,2.782-0.254,8.615-0.254,8.615C353.185,370.373,349.327,370.548,345.625,369.714z"/>
		<path style="fill:#C6FF00;stroke:#263238;stroke-linecap:round;stroke-linejoin:round;" d="M355.497,369.206
			c0,0-3.757-10.394-1.511-14.447c2.245-4.053,6.835-2.528,6.835,0.763c0,3.29,0.254,11.156-0.254,12.922
			C360.058,370.209,357.276,370.731,355.497,369.206z"/>
		<path style="fill:none;stroke:#263238;stroke-linecap:round;stroke-linejoin:round;" d="M349.933,368.952
			c-6.341-24.007-1.017-35.969-1.017-35.969s7.598,13.176,3.545,35.969"/>
		<path style="fill:none;stroke:#263238;stroke-linecap:round;stroke-linejoin:round;" d="M339.539,348.432
			c0,0-5.832,0.254,3.799,20.265"/>
	</g>
</g>
<g id="Character">
	<g>
		<g>
			<path style="fill:#263238;" d="M275.888,352.539c0,0,8.253,9.148,10.727,22.37h-79.876c0,0,1.571-14.095,6.468-22.37
				C218.104,344.264,275.888,352.539,275.888,352.539z"/>
			<g>
				<g>
					<path style="fill:#C6FF00;" d="M314.395,244.473c-3.325-2.739-32.136-14.665-32.136-14.665
						c-1.538-9.216-6.602-13.723-6.602-13.723s-17.452-5.065-23.026-0.769c-5.574,4.305-8.293,9.293-8.293,9.293
						c-23.429-1.49-31.329,6.324-31.329,6.324s-8.303,34.721-13.387,52.798c-5.084,18.076-12.359,31.848-12.359,31.848
						s-7.544,11.58-2.278,17.855c5.276,6.285,27.879,6.381,27.879,6.381l-4.123,22.651c0,0,6.199,5.055,31.127,10.811
						c24.929,5.756,45.254-9.274,45.254-9.274l-8.659-22.295c9.024-1.816,22.603-11.753,22.603-11.753
						c13.512-20.037,18.173-73.306,18.509-77.265C317.913,248.721,317.72,247.212,314.395,244.473z M280.404,315.578
						c0,0-4.219-2.499-4.334-2.556l-0.183-6.996l16.875-18.961L280.404,315.578z"/>
					<path style="opacity:0.1;" d="M314.395,244.473c-3.325-2.739-32.136-14.665-32.136-14.665
						c-1.538-9.216-6.602-13.723-6.602-13.723s-17.452-5.065-23.026-0.769c-5.574,4.305-8.293,9.293-8.293,9.293
						c-23.429-1.49-31.329,6.324-31.329,6.324s-8.303,34.721-13.387,52.798c-5.084,18.076-12.359,31.848-12.359,31.848
						s-7.544,11.58-2.278,17.855c5.276,6.285,27.879,6.381,27.879,6.381l-4.123,22.651c0,0,6.199,5.055,31.127,10.811
						c24.929,5.756,45.254-9.274,45.254-9.274l-8.659-22.295c9.024-1.816,22.603-11.753,22.603-11.753
						c13.512-20.037,18.173-73.306,18.509-77.265C317.913,248.721,317.72,247.212,314.395,244.473z M280.404,315.578
						c0,0-4.219-2.499-4.334-2.556l-0.183-6.996l16.875-18.961L280.404,315.578z"/>
				</g>
				<g>
					<path style="fill:#FFFFFF;" d="M237.852,323.536c0,0-5.188,7.322-5.998,12.887c0,0,5.324,0.44,10.987-0.397
						c5.663-0.837,8.269-0.204,12.476-9.792l3.906-0.063c0,0,5.114,7.615,12.845,5.962c0,0,1.592,1.305,4.325,0.058l-8.66-10.992
						c0,0,11.471,10.292,15.322,5.311l-14.313-9.786c0,0,7.207,1.233,10.932,3.217c3.725,1.984,5.087-2.613,5.087-2.613
						l-11.871-5.341c0,0-9.086,0.736-11.256-0.056c-2.17-0.792-3.548-1.838-5.14-0.283c-1.592,1.555-13.218,11.409-13.218,11.409
						L237.852,323.536z"/>
					
						<path style="fill:none;stroke:#263238;stroke-width:0.9857;stroke-linecap:round;stroke-linejoin:round;stroke-miterlimit:10;" d="
						M232.181,336.481c0,0,15.281-0.045,17.924-1.938c2.643-1.893,5.213-8.309,5.213-8.309l3.906-0.063c0,0,7.53,7.898,12.845,5.962
						c0,0-12.762-13.572-15.037-14.358"/>
					
						<path style="fill:none;stroke:#263238;stroke-width:0.9857;stroke-linecap:round;stroke-linejoin:round;stroke-miterlimit:10;" d="
						M271.598,331.636c0,0,2.171,2.055,4.796,0.556c0,0-13.24-16.339-16.161-16.821"/>
					
						<path style="fill:none;stroke:#263238;stroke-width:0.9857;stroke-linecap:round;stroke-linejoin:round;stroke-miterlimit:10;" d="
						M238.775,323.131l4.501-0.072c0,0,9.811-7.441,11.626-9.854c1.815-2.413,3.929-2.712,5.27-1.674
						c1.341,1.038,12.719,0.457,12.719,0.457l11.871,5.341c0,0-1.661,3.764-4.323,2.88c-2.663-0.884-8.65-3.498-11.695-3.484"/>
					
						<path style="fill:none;stroke:#263238;stroke-width:0.9857;stroke-linecap:round;stroke-linejoin:round;stroke-miterlimit:10;" d="
						M265.78,314.486c0,0,7.642,5.836,10.987,8.033c3.346,2.197,6.288,3.991,6.288,3.991s-2.88,2.045-5.679,0.898
						c-2.799-1.147-12.298-8.125-12.298-8.125"/>
				</g>
				<path style="fill:#FFFFFF;" d="M232.403,338.251c0,0,0.901-11.932,8.637-16.633l-11.885-2.068c0,0-8.025,8.926-7.723,18.33
					L232.403,338.251z"/>
				<path style="fill:#FFFFFF;" d="M248.486,238.042c0,0-1.737-15.847,4.146-22.721c0,0-15.523,12.083-18.755,35.094
					C233.877,250.415,243.824,238.872,248.486,238.042z"/>
				<path style="fill:#FFFFFF;stroke:#263238;stroke-miterlimit:10;" d="M215.308,317.096l-6.439-9.748
					c-0.333-0.504-1.113-0.13-0.924,0.444c0.703,2.133,1.788,4.898,3.221,6.985l-7.309-6.105c-0.594-0.496-1.476,0.082-1.245,0.821
					c0.691,2.212,2.095,5.467,4.714,7.41L215.308,317.096z"/>
				<path style="fill:#FFFFFF;" d="M275.662,216.084c0,0,4.773,4.185,5.685,8.955c0.912,4.77,2.45,13.98,2.45,13.98l-10.664,21.443
					c0,0-6.273-15.381-15.975-19.311C257.158,241.152,273.605,231.248,275.662,216.084z"/>
				<path style="fill:#263238;" d="M275.657,216.085c0.824,1.151,8.785-0.844,9.851-1.097c6.14-1.462,12.142-4.549,15.57-10.044
					c4.548-7.289,3.087-14.778,1.137-22.567c-1.429-5.707-2.99-11.38-4.592-17.041c-1.402-4.952-2.183-10.294-4.304-14.984
					c-3.061-6.767-7.964-12.725-14.807-15.886c-18.617-8.6-44.669,5.154-51.407,10.677c-6.738,5.524-7.255,21.541,9.078,30.67
					C252.506,184.937,275.625,216.04,275.657,216.085z"/>
				<path style="fill:#FFFFFF;" d="M240.653,155.773c0,0-6.548,5.305-6.749,8.349c-0.201,3.043,0.78,6.312,0.391,12.15
					c-0.389,5.838-1.465,16.361,3.651,23.319c0,0,3.493,8.265,14.058,12.565l0.628,3.166c0,0-4.272,8.94-4.48,16.423
					c-0.147,5.278,1.146,10.11,9.93,9.349c12.064-7.149,17.161-23.18,17.161-23.18l-3.827-18.475l1.039-9.251
					c0,0,5.665,0.444,7.362-4.453c0,0,3.314-16.095-8.653-4.685C256.197,177.148,246.064,167.799,240.653,155.773z"/>
				
					<path style="fill:none;stroke:#263238;stroke-width:0.75;stroke-linecap:round;stroke-linejoin:round;stroke-miterlimit:10;" d="
					M244.911,194.72c0,0,4.827,2.691,8.757-2.063"/>
				<path style="fill:none;stroke:#263238;stroke-linecap:round;stroke-linejoin:round;stroke-miterlimit:10;" d="M243.584,176.767
					c0,0-1.729,10.11-1.108,12.536c0,0,1.533,1.827,5.177,1.358"/>
				<path style="fill:none;stroke:#263238;stroke-linecap:round;stroke-linejoin:round;stroke-miterlimit:10;" d="M240.653,155.773
					c0,0-5.291,4.962-7.196,9.252c0,0,0.839,6.569,0.837,11.247c-0.002,4.678-2.111,13.036,2.304,21.1
					c4.416,8.064,13.943,15.91,19.355,15.658c5.413-0.251,15.224-5.809,16.945-21.287c0,0,9.456-1.066,9.009-5.305
					C281.908,186.439,290.199,171.982,240.653,155.773z"/>
				
					<line style="fill:none;stroke:#263238;stroke-linecap:round;stroke-linejoin:round;stroke-miterlimit:10;" x1="275.243" y1="217.913" x2="271.024" y2="199.8"/>
				<path style="fill:none;stroke:#263238;stroke-linecap:round;stroke-linejoin:round;stroke-miterlimit:10;" d="M248.486,238.042
					c0.543,0.64,1.221,1.205,2.055,1.676c2.469,1.393,5.02,1.765,7.54,1.375"/>
				<path style="fill:none;stroke:#263238;stroke-linecap:round;stroke-linejoin:round;stroke-miterlimit:10;" d="M252.004,212.155
					c0.183,1.063,0.628,3.166,0.628,3.166s-0.126,0.198-0.341,0.56"/>
				
					<path style="fill:none;stroke:#263238;stroke-width:0.75;stroke-linecap:round;stroke-linejoin:round;stroke-miterlimit:10;" d="
					M243.404,177.702c0.261,5.079-2.734,9.36-6.689,9.564c-3.955,0.203-7.373-3.749-7.633-8.828
					c-0.261-5.079,2.734-9.36,6.689-9.564C239.725,168.67,243.143,172.623,243.404,177.702z"/>
				
					<path style="fill:none;stroke:#263238;stroke-width:0.75;stroke-linecap:round;stroke-linejoin:round;stroke-miterlimit:10;" d="
					M260.396,175.935c0.261,5.079-2.734,9.36-6.689,9.564c-3.955,0.203-7.373-3.749-7.634-8.828
					c-0.261-5.079,2.734-9.36,6.689-9.564C256.717,166.904,260.135,170.857,260.396,175.935z"/>
				<g>
					<path style="fill:#263238;" d="M254.012,312.84l-25.831-15.931c-0.151-0.127-0.199-0.337-0.119-0.517
						c0.099-0.223,0.36-0.323,0.583-0.224l25.831,15.951c0.001,0.001,0.002,0.001,0.003,0.002c0.198,0.123,0.259,0.383,0.136,0.58
						c-0.076,0.139-0.223,0.224-0.382,0.22C254.152,312.918,254.075,312.889,254.012,312.84z"/>
					<path style="fill:#263238;" d="M240.418,307.792l-14.029-8.199c-0.21-0.123-0.281-0.392-0.159-0.602
						c0.129-0.203,0.397-0.264,0.602-0.139l14.029,8.199c0.003,0.002,0.006,0.004,0.01,0.005c0.201,0.118,0.268,0.376,0.15,0.577
						c-0.082,0.133-0.226,0.216-0.382,0.22C240.561,307.852,240.485,307.831,240.418,307.792z"/>
					<path style="fill:#263238;" d="M302.719,266.694c-0.213-0.108-0.301-0.366-0.199-0.582c3.676-6.937,7.793-13.63,12.326-20.04
						c0.136-0.196,0.402-0.248,0.602-0.119c0.007,0.005,0.014,0.009,0.021,0.014c0.189,0.135,0.233,0.399,0.098,0.588
						c-4.512,6.355-8.609,12.996-12.266,19.879c-0.071,0.158-0.229,0.26-0.402,0.26L302.719,266.694z"/>
					<path style="fill:none;stroke:#263238;stroke-linecap:round;stroke-linejoin:round;stroke-miterlimit:10;" d="M241.039,321.618
						c0,0-8.444,6.076-8.637,16.633h-10.942c0,0-0.96-10.173,8.062-18.619L241.039,321.618z"/>
					
						<line style="fill:none;stroke:#263238;stroke-linecap:round;stroke-linejoin:round;stroke-miterlimit:10;" x1="280.401" y1="314.777" x2="297.01" y2="277.54"/>
					<path style="fill:none;stroke:#263238;stroke-linecap:round;stroke-linejoin:round;stroke-miterlimit:10;" d="M221.461,338.251
						c0,0-18.837,4.465-32.066-1.709c-13.229-6.174-3.087-19.447-3.087-19.447c12.347-18.166,26.705-86.159,26.705-86.159
						s3.358-7.351,30.114-6.348"/>
					<path style="fill:none;stroke:#263238;stroke-linecap:round;stroke-linejoin:round;stroke-miterlimit:10;" d="M229.523,319.632
						c0,0-23.15-5.086-32.632-1.465"/>
					<path style="fill:none;stroke:#263238;stroke-linecap:round;stroke-linejoin:round;stroke-miterlimit:10;" d="M206.859,316.702
						c0,0-3.549-4.314-4.6-7.497c-0.243-0.737,0.649-1.325,1.245-0.828l7.661,6.4c0,0-2.089-3.691-3.451-6.978
						c-0.302-0.729,0.689-1.281,1.142-0.635l7.154,10.189"/>
					<path style="fill:none;stroke:#263238;stroke-linecap:round;stroke-linejoin:round;stroke-miterlimit:10;" d="M282.259,229.804
						l30.604,13.765c3.135,1.41,5.055,4.629,4.793,8.057c-1.22,15.955-5.238,55.54-18.938,78.936c0,0-35.812,29.017-77.257,7.689"/>
				</g>
				<polyline style="fill:none;stroke:#263238;stroke-linecap:round;stroke-linejoin:round;stroke-miterlimit:10;" points="
					293.516,285.374 275.885,306.022 276.07,313.021 				"/>
				<path style="fill:none;stroke:#263238;stroke-linecap:round;stroke-linejoin:round;stroke-miterlimit:10;" d="M242.689,275.061
					c0,0,3.952-14.061,9.522-22.133"/>
				<path style="fill:none;stroke:#263238;stroke-linecap:round;stroke-linejoin:round;stroke-miterlimit:10;" d="M212.867,339.812
					l-4.122,22.654c0,0,41.978,25.341,76.38,1.534l-8.497-21.928"/>
				<path style="fill:none;stroke:#263238;stroke-linecap:round;stroke-linejoin:round;stroke-miterlimit:10;" d="M215.421,250.105
					l-1.671,22.086c0,0-10.437,17.031,1.671,30.078l0.59,15.084"/>
				<path style="fill:none;stroke:#263238;stroke-linecap:round;stroke-linejoin:round;stroke-miterlimit:10;" d="M258.53,241.006
					c0,0,14.157-9.566,17.131-24.922c0,0,4.994,4.6,5.997,10.268c1.003,5.668,2.139,12.667,2.139,12.667l-11.093,22.305
					c0,0-6.353-16.435-12.153-17.885"/>
				<path style="fill:none;stroke:#263238;stroke-linecap:round;stroke-linejoin:round;stroke-miterlimit:10;" d="M252.632,215.321
					c0,0-5.939,6.484-4.146,22.721c0,0-11.346,6.829-14.865,13.467C233.621,251.508,240.078,221.943,252.632,215.321z"/>
				
					<line style="fill:none;stroke:#263238;stroke-width:0.75;stroke-linecap:round;stroke-linejoin:round;stroke-miterlimit:10;" x1="243.248" y1="176.303" x2="246.064" y2="176.303"/>
			</g>
			<path style="fill:#263238;" d="M233.877,181.583c0,0-5.413,12.5-3.038,23.531c2.376,11.031,21.793,10.207,21.793,10.207
				l-0.628-3.166C252.004,212.155,231.612,202.408,233.877,181.583z"/>
			<path style="fill:none;stroke:#263238;stroke-width:0.75;stroke-linecap:round;stroke-linejoin:round;stroke-miterlimit:10;" d="
				M244.997,144.741c0,0,9.893,26.509,33.987,29.332"/>
			<path style="fill:none;stroke:#263238;stroke-width:0.75;stroke-linecap:round;stroke-linejoin:round;stroke-miterlimit:10;" d="
				M252.004,140.841c0,0,16.556,24.094,38.771,24.949"/>
			<path style="fill:none;stroke:#263238;stroke-linecap:round;stroke-linejoin:round;stroke-miterlimit:10;" d="M250.406,178.069
				c0,0,2.029-2.414,6.752-1.054"/>
			<path style="fill:none;stroke:#263238;stroke-linecap:round;stroke-linejoin:round;stroke-miterlimit:10;" d="M241.434,179.294
				c0,0-2.445-2.319-6.026-1.224"/>
			<ellipse style="fill:#263238;" cx="254.935" cy="178.5" rx="1.404" ry="2.41"/>
			<path style="fill:#263238;" d="M241.177,180.262c0,1.093-0.516,1.979-1.153,1.979s-1.153-0.886-1.153-1.979
				s0.516-1.979,1.153-1.979S241.177,179.169,241.177,180.262z"/>
		</g>
		<path style="fill:none;stroke:#263238;stroke-linecap:round;stroke-linejoin:round;stroke-miterlimit:10;" d="M247.653,172.164
			c0,0,2.928-3.932,8.687-2.022"/>
		<path style="fill:none;stroke:#263238;stroke-linecap:round;stroke-linejoin:round;stroke-miterlimit:10;" d="M240.024,172.164
			c0,0-3.204-2.921-5.789-0.562"/>
	</g>
</g>
</svg>
